<?xml version="1.0" encoding="utf-8"?>
<!-- Generator: Adobe Illustrator 26.3.1, SVG Export Plug-In . SVG Version: 6.00 Build 0)  -->
<svg version="1.1" id="_x32_" xmlns="http://www.w3.org/2000/svg" xmlns:xlink="http://www.w3.org/1999/xlink" x="0px" y="0px"
	 viewBox="0 0 512 512" style="enable-background:new 0 0 512 512;" xml:space="preserve">
<style type="text/css">
	.st0{fill:#4B4B4B;}
</style>
<g>
	<path class="st0" d="M256,215.4c44.3,0,80.3-35.9,80.3-80.3c0-44.3-35.9-80.3-80.3-80.3s-80.3,35.9-80.3,80.3
		C175.7,179.5,211.7,215.4,256,215.4z"/>
	<path class="st0" d="M432.9,251.5c33,0,59.8-26.8,59.8-59.8s-26.8-59.8-59.8-59.8s-59.8,26.8-59.8,59.8S399.9,251.5,432.9,251.5z"
		/>
	<path class="st0" d="M433.6,265.2c-23,0-40.6,7.2-53.3,16.7c2.7,5.9,4.6,11.6,5.7,16.8l0.5,2.6v130.4H443c38.1,0,69-30.9,69-69
		v-45.2C507.9,298.2,483.1,265.2,433.6,265.2z"/>
	<path class="st0" d="M79.1,131.8c-33,0-59.8,26.8-59.8,59.8c0,33.1,26.8,59.8,59.8,59.8s59.8-26.8,59.8-59.8
		S112.1,131.8,79.1,131.8z"/>
	<path class="st0" d="M0,317.5v45.2c0,38.1,30.9,69,69,69h56.4V301.3l0.6-2.6c1.1-5.2,3-10.9,5.7-16.8
		c-12.7-9.6-30.3-16.7-53.3-16.7C28.9,265.2,4.1,298.2,0,317.5z"/>
	<path class="st0" d="M256,233.9c-66.4,0-99.6,44.3-105.2,70.1v115.5c0,20.8,16.9,37.7,37.7,37.7h135c20.8,0,37.7-16.9,37.7-37.7
		V304C355.6,278.1,322.4,233.9,256,233.9z"/>
</g>
</svg>
